<svg width="351" height="222" viewBox="0 0 351 222" fill="none" xmlns="http://www.w3.org/2000/svg">
<g filter="url(#filter0_d_129_12)">
<path d="M184.834 65.9868C190.058 63.4993 193.385 58.2295 193.385 52.4438L193.385 7.99995L112.551 46.4924C107.327 48.9799 104 54.2497 104 60.0354L104 104.479L184.834 65.9868Z" fill="#07C1C1"/>
<g filter="url(#filter1_d_129_12)">
<path d="M238.449 71.4711C243.673 68.9837 247 63.7138 247 57.9282L247 13.4843L166.166 51.9768C160.942 54.4643 157.615 59.7341 157.615 65.5197L157.615 109.964L238.449 71.4711Z" fill="#248EC9"/>
</g>
<g filter="url(#filter2_d_129_12)">
<path d="M166.166 128.07C160.942 125.582 157.615 120.312 157.615 114.527L157.615 70.0827L238.449 108.575C243.673 111.063 247 116.332 247 122.118L247 166.562L166.166 128.07Z" fill="#1C6F9D"/>
</g>
<g filter="url(#filter3_d_129_12)">
<path d="M112.551 124.85C107.327 122.362 104 117.092 104 111.307L104 66.8627L184.834 105.355C190.058 107.843 193.385 113.113 193.385 118.898L193.385 163.342L112.551 124.85Z" fill="#00ABAB"/>
</g>
</g>
<path d="M10.92 210C8.06667 210 6 209.373 4.72 208.12C3.44 206.866 2.8 204.84 2.8 202.04V194.72C2.8 191.84 3.50667 189.746 4.92 188.44C6.33333 187.106 8.33333 186.44 10.92 186.44H22.6C24.44 186.44 25.84 186.546 26.8 186.76C27.7867 186.946 28.28 187.146 28.28 187.36L27.04 192.36C26.3733 192.28 25.0667 192.2 23.12 192.12C21.2 192.013 18.7733 191.96 15.84 191.96H13.8C12.5467 191.96 11.6933 192.2 11.24 192.68C10.8133 193.133 10.6 193.84 10.6 194.8V201.64C10.6 202.546 10.7867 203.253 11.16 203.76C11.56 204.24 12.44 204.48 13.8 204.48H15.44C19.2533 204.48 22.16 204.44 24.16 204.36C26.16 204.253 27.36 204.146 27.76 204.04L30.2 208.36C30.2 208.493 29.92 208.693 29.36 208.96C28.8267 209.226 27.9067 209.466 26.6 209.68C25.32 209.893 23.5333 210 21.24 210H10.92ZM34.8956 210L45.1506 189.42H54.2506L64.4706 210H56.9456L55.2306 206.255H44.1706L42.2456 210H34.8956ZM46.0956 201.425H53.2706L49.8756 193.97H49.5256L46.0956 201.425ZM93.4271 210.35C92.4938 210.35 91.4554 210.21 90.3121 209.93C89.1688 209.626 88.0371 208.903 86.9171 207.76L85.4471 206.29C84.7471 205.59 84.0704 205.018 83.4171 204.575C82.7871 204.131 82.0638 203.805 81.2471 203.595C80.4304 203.361 79.4038 203.245 78.1671 203.245H77.8871V210H71.0621V192.22L70.7121 189.385H86.9171C88.4104 189.385 89.6121 189.571 90.5221 189.945C91.4554 190.295 92.1671 190.773 92.6571 191.38C93.1704 191.963 93.5204 192.628 93.7071 193.375C93.8938 194.121 93.9871 194.88 93.9871 195.65V196.315C93.9871 197.715 93.6254 198.975 92.9021 200.095C92.2021 201.191 91.0821 201.973 89.5421 202.44C90.1254 202.79 90.6738 203.151 91.1871 203.525C91.7238 203.875 92.3304 204.248 93.0071 204.645C93.7771 205.088 94.4888 205.415 95.1421 205.625C95.8188 205.811 96.3788 205.928 96.8221 205.975C97.2654 206.021 97.5221 206.045 97.5921 206.045L96.5421 210C96.2621 210.07 95.8304 210.14 95.2471 210.21C94.6871 210.303 94.0804 210.35 93.4271 210.35ZM81.9471 198.59C82.5304 198.59 83.0904 198.578 83.6271 198.555C84.1871 198.531 84.6888 198.496 85.1321 198.45C85.9254 198.356 86.4621 198.111 86.7421 197.715C87.0454 197.295 87.1971 196.793 87.1971 196.21V195.825C87.1971 195.311 87.0454 194.915 86.7421 194.635C86.4621 194.355 85.9371 194.215 85.1671 194.215H77.8871V198.45C78.4704 198.473 79.1121 198.508 79.8121 198.555C80.5121 198.578 81.2238 198.59 81.9471 198.59ZM103.906 210V189.42H126.376V194.18H110.731V197.085H122.316V201.95H110.731V205.205H125.816L127.916 209.615C127.916 209.708 127.601 209.801 126.971 209.895C126.341 209.965 125.256 210 123.716 210H103.906ZM134.571 210V189.42H157.041V194.18H141.396V197.085H152.981V201.95H141.396V205.205H156.481L158.581 209.615C158.581 209.708 158.266 209.801 157.636 209.895C157.006 209.965 155.921 210 154.381 210H134.571ZM187.95 210.35C187.017 210.35 185.979 210.21 184.835 209.93C183.692 209.626 182.56 208.903 181.44 207.76L179.97 206.29C179.27 205.59 178.594 205.018 177.94 204.575C177.31 204.131 176.587 203.805 175.77 203.595C174.954 203.361 173.927 203.245 172.69 203.245H172.41V210H165.585V192.22L165.235 189.385H181.44C182.934 189.385 184.135 189.571 185.045 189.945C185.979 190.295 186.69 190.773 187.18 191.38C187.694 191.963 188.044 192.628 188.23 193.375C188.417 194.121 188.51 194.88 188.51 195.65V196.315C188.51 197.715 188.149 198.975 187.425 200.095C186.725 201.191 185.605 201.973 184.065 202.44C184.649 202.79 185.197 203.151 185.71 203.525C186.247 203.875 186.854 204.248 187.53 204.645C188.3 205.088 189.012 205.415 189.665 205.625C190.342 205.811 190.902 205.928 191.345 205.975C191.789 206.021 192.045 206.045 192.115 206.045L191.065 210C190.785 210.07 190.354 210.14 189.77 210.21C189.21 210.303 188.604 210.35 187.95 210.35ZM176.47 198.59C177.054 198.59 177.614 198.578 178.15 198.555C178.71 198.531 179.212 198.496 179.655 198.45C180.449 198.356 180.985 198.111 181.265 197.715C181.569 197.295 181.72 196.793 181.72 196.21V195.825C181.72 195.311 181.569 194.915 181.265 194.635C180.985 194.355 180.46 194.215 179.69 194.215H172.41V198.45C172.994 198.473 173.635 198.508 174.335 198.555C175.035 198.578 175.747 198.59 176.47 198.59Z" fill="url(#paint0_linear_129_12)"/>
<path d="M206.549 210C203.696 210 201.629 209.373 200.349 208.12C199.069 206.866 198.429 204.84 198.429 202.04V194.72C198.429 191.84 199.136 189.746 200.549 188.44C201.963 187.106 203.963 186.44 206.549 186.44H218.229C220.069 186.44 221.469 186.546 222.429 186.76C223.416 186.946 223.909 187.146 223.909 187.36L222.669 192.36C222.003 192.28 220.696 192.2 218.749 192.12C216.829 192.013 214.403 191.96 211.469 191.96H209.429C208.176 191.96 207.323 192.2 206.869 192.68C206.443 193.133 206.229 193.84 206.229 194.8V201.64C206.229 202.546 206.416 203.253 206.789 203.76C207.189 204.24 208.069 204.48 209.429 204.48H211.069C214.883 204.48 217.789 204.44 219.789 204.36C221.789 204.253 222.989 204.146 223.389 204.04L225.829 208.36C225.829 208.493 225.549 208.693 224.989 208.96C224.456 209.226 223.536 209.466 222.229 209.68C220.949 209.893 219.163 210 216.869 210H206.549ZM255.76 210.35C254.827 210.35 253.788 210.21 252.645 209.93C251.502 209.626 250.37 208.903 249.25 207.76L247.78 206.29C247.08 205.59 246.403 205.018 245.75 204.575C245.12 204.131 244.397 203.805 243.58 203.595C242.763 203.361 241.737 203.245 240.5 203.245H240.22V210H233.395V192.22L233.045 189.385H249.25C250.743 189.385 251.945 189.571 252.855 189.945C253.788 190.295 254.5 190.773 254.99 191.38C255.503 191.963 255.853 192.628 256.04 193.375C256.227 194.121 256.32 194.88 256.32 195.65V196.315C256.32 197.715 255.958 198.975 255.235 200.095C254.535 201.191 253.415 201.973 251.875 202.44C252.458 202.79 253.007 203.151 253.52 203.525C254.057 203.875 254.663 204.248 255.34 204.645C256.11 205.088 256.822 205.415 257.475 205.625C258.152 205.811 258.712 205.928 259.155 205.975C259.598 206.021 259.855 206.045 259.925 206.045L258.875 210C258.595 210.07 258.163 210.14 257.58 210.21C257.02 210.303 256.413 210.35 255.76 210.35ZM244.28 198.59C244.863 198.59 245.423 198.578 245.96 198.555C246.52 198.531 247.022 198.496 247.465 198.45C248.258 198.356 248.795 198.111 249.075 197.715C249.378 197.295 249.53 196.793 249.53 196.21V195.825C249.53 195.311 249.378 194.915 249.075 194.635C248.795 194.355 248.27 194.215 247.5 194.215H240.22V198.45C240.803 198.473 241.445 198.508 242.145 198.555C242.845 198.578 243.557 198.59 244.28 198.59ZM263.719 210L273.974 189.42H283.074L293.294 210H285.769L284.054 206.255H272.994L271.069 210H263.719ZM274.919 201.425H282.094L278.699 193.97H278.349L274.919 201.425ZM299.885 210V192.22L299.535 189.42H322.075V194.18H306.71V197.365H318.295V202.23H306.71V210H299.885ZM334.96 210V194.145H326.63V189.385H350.185V194.145H341.75V210H334.96Z" fill="url(#paint1_linear_129_12)"/>
<defs>
<filter id="filter0_d_129_12" x="92" y="0" width="171" height="186.562" filterUnits="userSpaceOnUse" color-interpolation-filters="sRGB">
<feFlood flood-opacity="0" result="BackgroundImageFix"/>
<feColorMatrix in="SourceAlpha" type="matrix" values="0 0 0 0 0 0 0 0 0 0 0 0 0 0 0 0 0 0 127 0" result="hardAlpha"/>
<feOffset dx="2" dy="6"/>
<feGaussianBlur stdDeviation="7"/>
<feComposite in2="hardAlpha" operator="out"/>
<feColorMatrix type="matrix" values="0 0 0 0 0 0 0 0 0 0 0 0 0 0 0 0 0 0 0.25 0"/>
<feBlend mode="normal" in2="BackgroundImageFix" result="effect1_dropShadow_129_12"/>
<feBlend mode="normal" in="SourceGraphic" in2="effect1_dropShadow_129_12" result="shape"/>
</filter>
<filter id="filter1_d_129_12" x="152.615" y="8.48438" width="97.3853" height="104.479" filterUnits="userSpaceOnUse" color-interpolation-filters="sRGB">
<feFlood flood-opacity="0" result="BackgroundImageFix"/>
<feColorMatrix in="SourceAlpha" type="matrix" values="0 0 0 0 0 0 0 0 0 0 0 0 0 0 0 0 0 0 127 0" result="hardAlpha"/>
<feOffset dx="-1" dy="-1"/>
<feGaussianBlur stdDeviation="2"/>
<feComposite in2="hardAlpha" operator="out"/>
<feColorMatrix type="matrix" values="0 0 0 0 0 0 0 0 0 0 0 0 0 0 0 0 0 0 0.25 0"/>
<feBlend mode="normal" in2="BackgroundImageFix" result="effect1_dropShadow_129_12"/>
<feBlend mode="normal" in="SourceGraphic" in2="effect1_dropShadow_129_12" result="shape"/>
</filter>
<filter id="filter2_d_129_12" x="153.615" y="65.0828" width="97.3853" height="104.479" filterUnits="userSpaceOnUse" color-interpolation-filters="sRGB">
<feFlood flood-opacity="0" result="BackgroundImageFix"/>
<feColorMatrix in="SourceAlpha" type="matrix" values="0 0 0 0 0 0 0 0 0 0 0 0 0 0 0 0 0 0 127 0" result="hardAlpha"/>
<feOffset dy="-1"/>
<feGaussianBlur stdDeviation="2"/>
<feComposite in2="hardAlpha" operator="out"/>
<feColorMatrix type="matrix" values="0 0 0 0 0 0 0 0 0 0 0 0 0 0 0 0 0 0 0.25 0"/>
<feBlend mode="normal" in2="BackgroundImageFix" result="effect1_dropShadow_129_12"/>
<feBlend mode="normal" in="SourceGraphic" in2="effect1_dropShadow_129_12" result="shape"/>
</filter>
<filter id="filter3_d_129_12" x="100" y="61.8628" width="97.3853" height="104.479" filterUnits="userSpaceOnUse" color-interpolation-filters="sRGB">
<feFlood flood-opacity="0" result="BackgroundImageFix"/>
<feColorMatrix in="SourceAlpha" type="matrix" values="0 0 0 0 0 0 0 0 0 0 0 0 0 0 0 0 0 0 127 0" result="hardAlpha"/>
<feOffset dy="-1"/>
<feGaussianBlur stdDeviation="2"/>
<feComposite in2="hardAlpha" operator="out"/>
<feColorMatrix type="matrix" values="0 0 0 0 0 0 0 0 0 0 0 0 0 0 0 0 0 0 0.25 0"/>
<feBlend mode="normal" in2="BackgroundImageFix" result="effect1_dropShadow_129_12"/>
<feBlend mode="normal" in="SourceGraphic" in2="effect1_dropShadow_129_12" result="shape"/>
</filter>
<linearGradient id="paint0_linear_129_12" x1="0" y1="198" x2="189.5" y2="198" gradientUnits="userSpaceOnUse">
<stop stop-color="#00ABAB"/>
<stop offset="1" stop-color="#0CE2E2"/>
</linearGradient>
<linearGradient id="paint1_linear_129_12" x1="201" y1="198" x2="351" y2="198" gradientUnits="userSpaceOnUse">
<stop stop-color="#1C6F9D"/>
<stop offset="1" stop-color="#2DAAEF"/>
</linearGradient>
</defs>
</svg>
